<?xml version="1.0" encoding="UTF-8" standalone="no"?><!-- Generator: Gravit.io --><svg xmlns="http://www.w3.org/2000/svg" xmlns:xlink="http://www.w3.org/1999/xlink" style="isolation:isolate" viewBox="0 0 417.1 85.2" width="417.1pt" height="85.2pt"><defs><clipPath id="_clipPath_iP79aVMUt8LlAQApuhA3U8qjh5rqWgqX"><rect width="417.1" height="85.2"/></clipPath></defs><g clip-path="url(#_clipPath_iP79aVMUt8LlAQApuhA3U8qjh5rqWgqX)"><rect width="417.1" height="85.2" style="fill:rgb(115,115,115)" fill-opacity="0"/><path d=" M 58.962 11.711 Q 43.423 1.5 30.673 2.75 C 17.923 4 6.423 6.75 0.923 20.5 C -4.577 34.25 15.923 49.25 25.173 51.25 L 48.923 36.5 Q 15.173 37.5 13.923 20.5 Q 12.673 3.5 58.962 11.711 Z " fill="rgb(255,255,255)"/><path d=" M 0.923 58.75 L 18.173 82.25 Q 61.062 90.364 64.751 69.5 C 67.183 55.744 64.001 49.515 45.251 39.015 Q 54.173 59.375 45.923 66.75 Q 37.673 74.125 0.923 58.75 Z " fill="rgb(255,255,255)"/><path d=" M 73.305 67.257 Q 85.673 57.75 88.048 53.125 C 90.423 48.5 96.548 34.5 92.423 4.875 Q 102.673 24.5 101.548 49.125 Q 100.423 73.75 86.423 85.25 L 73.305 67.257 Z " fill="rgb(255,255,255)"/><path d=" M 74.423 42.625 Q 101.548 66.25 123.173 60.25 L 117.423 48.875 Q 106.798 51.375 98.298 48.875 Q 89.798 46.375 74.423 42.625 Z " fill="rgb(255,255,255)"/><path d=" M 84.673 5.5 Q 128.735 41.875 124.423 73.75 L 141.86 83.875 Q 140.36 50.687 125.923 35.125 Q 111.485 19.562 84.673 5.5 Z " fill="rgb(255,255,255)"/><path d=" M 150.673 69.25 Q 168.86 38.125 145.798 4.187 Q 179.548 33.375 169.61 82.25 L 150.673 69.25 Z " fill="rgb(255,255,255)"/><path d=" M 210.485 39.437 Q 240.485 50.875 252.298 41.125 L 264.485 50.312 Q 250.985 56.875 235.798 52.562 Q 220.61 48.25 210.485 39.437 Z " fill="rgb(255,255,255)"/><path d=" M 237.86 83.875 Q 186.298 81.625 184.048 42.625 Q 181.798 3.625 227.923 4.187 Q 254.173 11.5 253.423 20.875 Q 235.798 5.922 221.923 11.711 C 208.048 17.5 196.798 22 199.048 41.125 Q 201.298 60.25 228.86 67.257 Q 244.985 69.625 253.423 56.125 L 237.86 83.875 Z " fill="rgb(255,255,255)"/><path d=" M 237.86 27.062 Q 254.735 13.937 250.985 4.187 Q 248.173 7.187 238.985 7.562 Q 243.673 14.687 242.548 16.75 Q 241.423 18.812 237.86 27.062 Z " fill="rgb(255,255,255)"/><path d=" M 300.673 2.75 Q 260.423 54.25 324.923 74 L 306.423 85.25 C 280.033 73.1 266.018 55.197 272.673 33.5 C 278.381 14.887 287.724 4.647 300.673 2.75 Z " fill="rgb(255,255,255)"/><path d=" M 327.204 81.499 Q 362.054 26.202 295.891 13.059 L 313.162 0 C 340.642 9.426 356.392 25.824 351.959 48.082 C 348.157 67.175 339.895 78.305 327.204 81.499 Z " fill="rgb(255,255,255)"/><path d=" M 372.298 81.499 Q 350.673 30.375 376.798 0.875 Q 365.048 50.25 386.173 69.25 L 372.298 81.499 Z " fill="rgb(255,255,255)"/><path d=" M 367.893 6.794 Q 413.119 38.981 406.347 77.8 Q 390.455 29.598 362.504 24.5 L 367.893 6.794 Z " fill="rgb(255,255,255)"/><path d=" M 407.34 0.875 Q 428.964 52 402.838 81.499 Q 414.589 32.124 393.464 13.124 L 407.34 0.875 Z " fill="rgb(255,255,255)"/></g></svg>